<?xml version="1.0" encoding="iso-8859-1"?>
<!-- Generator: Adobe Illustrator 19.0.0, SVG Export Plug-In . SVG Version: 6.00 Build 0)  -->
<svg version="1.1" id="Capa_1" xmlns="http://www.w3.org/2000/svg" xmlns:xlink="http://www.w3.org/1999/xlink" x="0px" y="0px"
	 viewBox="0 0 512 512" style="enable-background:new 0 0 512 512;" xml:space="preserve">
<g>
	<path style="fill:#62BEFF;" d="M314.368,436.395c13.201,4.233,20.471,18.372,16.239,31.573s-18.372,20.471-31.573,16.239
		c-13.201-4.233-20.471-18.372-16.239-31.573c3.388-10.564,13.312-17.655,24.405-17.434
		C309.632,435.251,312.047,435.652,314.368,436.395z"/>
	<path style="fill:#62BEFF;" d="M467.883,176.128c6.306,4.77,10.001,12.228,9.984,20.139c0,14.14-11.46,25.6-25.6,25.6
		c-14.14,0-25.6-11.46-25.6-25.6s11.46-25.6,25.6-25.6C457.941,170.675,463.445,172.595,467.883,176.128z"/>
	<path style="fill:#62BEFF;" d="M59.733,179.2c14.08-0.06,25.54,11.307,25.6,25.395c0.034,7.27-3.046,14.208-8.448,19.063
		c-4.659,4.343-10.786,6.75-17.152,6.741c-14.106,0.034-25.566-11.366-25.609-25.472c-0.026-9.301,5.009-17.886,13.15-22.4
		C51.08,180.386,55.364,179.243,59.733,179.2z"/>
</g>
<circle style="fill:#DD2E2B;" cx="256" cy="256" r="25.6"/>
<g>
	<path style="fill:#454545;" d="M418.27,408.841c-31.317-1.169-62.268-7.185-91.742-17.852
		c-25.429-8.516-50.253-18.756-74.291-30.643c-14.353-7.049-28.877-14.805-43.17-23.04c-14.293-8.235-28.16-16.93-41.54-25.907
		c-22.306-14.891-43.588-31.266-63.71-48.998c-11.691-10.394-22.801-21.419-33.28-33.033l12.715-11.383
		c10.061,11.127,20.727,21.7,31.949,31.659c19.541,17.22,40.209,33.118,61.875,47.573c13.03,8.772,26.675,17.28,40.55,25.293
		c13.875,8.013,28.16,15.633,42.163,22.519c23.347,11.546,47.462,21.487,72.158,29.764c67.012,22.229,118.417,22.502,130.97,0.683
		s-13.363-66.193-66.116-113.092c-19.456-17.289-40.107-33.195-61.798-47.59c-12.467-8.439-26.103-16.947-40.567-25.301
		c-13.961-8.064-28.16-15.633-42.163-22.519c-23.347-11.546-47.445-21.487-72.141-29.764
		c-67.004-22.187-118.409-22.485-130.97-0.683c-7.083,12.211-0.802,29.602,5.709,42.044l-15.121,7.919
		C27.349,162.85,25.54,143.172,34.347,128c17.545-30.455,72.636-33.007,151.125-6.972c25.429,8.516,50.253,18.756,74.291,30.643
		c14.353,7.049,28.877,14.805,43.17,23.04c14.822,8.533,28.8,17.28,41.566,25.924c22.332,14.831,43.588,31.206,63.633,49.007
		c61.807,54.929,87.159,103.91,69.521,134.357C468.147,400.529,447.59,408.841,418.27,408.841z"/>
	<path style="fill:#454545;" d="M449.015,362.88l-17.067-0.93c0.162-3.012-4.267-17.229-25.839-42.163l12.902-11.179
		C438.733,331.341,449.655,351.121,449.015,362.88z"/>
	<path style="fill:#454545;" d="M143.019,161.801c-5.743-1.417-11.307-2.671-16.469-3.661l3.243-16.759
		c5.427,1.05,11.29,2.364,17.323,3.857L143.019,161.801z"/>
	<path style="fill:#454545;" d="M79.019,155.93l-3.925-16.606c12.194-2.278,24.678-2.509,36.949-0.674l-2.039,16.939
		c-5.41-0.674-10.846-1.024-16.299-1.05C88.772,154.445,83.848,154.906,79.019,155.93z"/>
	<path style="fill:#454545;" d="M59.733,238.933c-18.816,0.034-34.099-15.198-34.133-34.014
		c-0.026-12.365,6.656-23.765,17.442-29.798l8.465,14.814c-5.393,3.021-8.764,8.687-8.841,14.865
		c0,9.429,7.637,17.067,17.067,17.067c4.215,0.017,8.286-1.587,11.358-4.471l11.588,12.527
		C76.442,235.716,68.25,238.933,59.733,238.933z"/>
	<path style="fill:#454545;" d="M82.645,229.948L71.117,217.37c6.929-6.306,7.433-17.024,1.126-23.953
		c-5.325-5.854-13.986-7.245-20.873-3.354l-8.183-14.976c16.35-9.216,37.077-3.439,46.302,12.919
		c2.884,5.12,4.395,10.906,4.378,16.794C93.867,214.391,89.788,223.539,82.645,229.948z"/>
	<path style="fill:#454545;" d="M93.739,408.841c-29.338,0-49.886-8.32-59.409-24.849c-17.638-30.473,7.68-79.454,69.487-134.374
		c20.113-17.749,41.395-34.116,63.71-48.998c12.74-8.627,26.718-17.348,41.54-25.907c14.293-8.252,28.817-16.009,43.17-23.04
		c24.038-11.887,48.862-22.127,74.291-30.643c78.507-26.044,133.581-23.492,151.142,6.997c7.91,13.491,7.253,30.874-1.997,51.593
		l-15.582-6.946c6.827-15.411,7.817-27.546,2.825-36.07c-12.604-21.871-64-21.598-131.012,0.623
		c-24.695,8.277-48.794,18.219-72.141,29.764c-14.012,6.886-28.203,14.455-42.163,22.519c-14.507,8.354-28.1,16.862-40.525,25.276
		c-21.675,14.447-42.342,30.345-61.875,47.582c-52.804,46.891-78.72,91.273-66.091,113.101c12.629,21.828,64,21.555,130.987-0.666
		c24.695-8.277,48.794-18.219,72.141-29.764c14.012-6.886,28.16-14.455,42.163-22.519c14.208-8.201,27.853-16.683,40.559-25.216
		c21.641-14.507,42.3-30.43,61.841-47.667c12.954-11.383,25.114-23.646,36.386-36.693l12.988,11.093
		c-11.785,13.653-24.491,26.487-38.033,38.4c-20.105,17.732-41.37,34.116-63.65,49.033c-13.047,8.755-27.017,17.442-41.557,25.839
		c-14.293,8.252-28.817,16.009-43.17,23.04c-24.038,11.887-48.862,22.127-74.291,30.643
		C156.006,401.655,125.056,407.671,93.739,408.841z"/>
	<path style="fill:#454545;" d="M363.938,163.123l-4.42-16.486c19.132-5.521,38.886-8.593,58.786-9.165h1.707v17.067h-1.707
		C399.889,155.051,381.611,157.935,363.938,163.123z"/>
	<path style="fill:#454545;" d="M93.696,374.528c-9.003,0.597-18.022-0.981-26.283-4.608c-2.611-1.408-4.301-4.079-4.463-7.04
		c-0.785-14.507,16.068-41.105,43.998-69.513l12.169,11.947c-23.757,24.166-34.517,42.112-37.897,51.2
		c4.113,0.666,8.277,0.973,12.442,0.922L93.696,374.528z"/>
	<path style="fill:#454545;" d="M452.267,230.4c-5.914-0.009-11.725-1.57-16.845-4.523l8.431-14.848
		c2.551,1.493,5.453,2.287,8.414,2.304c9.429,0,17.067-7.637,17.067-17.067c0.017-5.239-2.432-10.189-6.613-13.346l10.334-13.585
		c8.439,6.374,13.389,16.35,13.346,26.931C486.4,215.117,471.117,230.4,452.267,230.4z"/>
	<path style="fill:#454545;" d="M435.371,225.843c-16.367-9.301-22.084-30.114-12.783-46.473
		c6.067-10.667,17.399-17.254,29.679-17.237c7.586,0,14.942,2.569,20.881,7.279l-10.53,13.431
		c-2.944-2.347-6.588-3.627-10.351-3.644c-9.395-0.026-17.033,7.578-17.058,16.973c-0.017,6.178,3.319,11.878,8.704,14.891
		L435.371,225.843z"/>
	<path style="fill:#454545;" d="M256,512c-35.191,0-64.922-46.43-81.579-127.386c-5.325-26.308-8.883-52.941-10.65-79.727
		c-1.092-16.597-1.638-33.041-1.638-48.887s0.546-32.29,1.638-48.862c1.758-26.795,5.325-53.444,10.658-79.761
		C191.078,46.43,220.808,0,256,0s64.922,46.43,81.579,127.386c5.325,26.308,8.883,52.941,10.65,79.727
		c1.092,16.597,1.638,33.041,1.638,48.887s-0.546,32.367-1.638,48.939c-1.766,26.769-5.333,53.393-10.658,79.684
		c-3.661,18.603-8.747,36.907-15.198,54.733l-16.026-5.922c6.161-17.015,11.008-34.483,14.507-52.241
		c5.171-25.54,8.627-51.396,10.342-77.397c1.067-16.171,1.604-32.265,1.604-47.795s-0.538-31.573-1.604-47.744
		c-1.715-26.01-5.171-51.866-10.342-77.414C306.645,61.722,281.182,17.067,256,17.067s-50.645,44.655-64.853,113.766
		c-5.171,25.557-8.627,51.439-10.342,77.457c-1.067,16.137-1.604,32.23-1.604,47.71s0.538,31.573,1.604,47.744
		c1.715,26.01,5.171,51.866,10.342,77.414c14.208,69.12,39.671,113.775,64.853,113.775c9.549,0,19.226-6.434,28.766-19.123
		l13.653,10.24C285.474,503.279,271.206,512,256,512z"/>
	<path style="fill:#454545;" d="M240.853,81.655l-15.787-6.468c5.069-12.373,15.36-33.997,27.119-39.902l7.629,15.266
		C257.638,51.644,250.027,59.349,240.853,81.655z"/>
	<path style="fill:#454545;" d="M240.64,465.92c-11.221-17.015-19.601-35.755-24.798-55.467l16.35-4.864
		c4.676,17.758,12.134,34.662,22.101,50.091L240.64,465.92z"/>
	<path style="fill:#454545;" d="M307.2,494.933c-7.586,0-14.942-2.569-20.881-7.279l10.53-13.431
		c2.944,2.347,6.588,3.627,10.351,3.644c9.429,0,17.067-7.637,17.067-17.067c0.026-7.543-4.992-14.182-12.262-16.213l4.727-16.401
		c18.065,5.205,28.484,24.073,23.279,42.138C335.804,484.932,322.406,494.985,307.2,494.933z"/>
	<path style="fill:#454545;" d="M286.362,487.68c-8.38-6.4-13.295-16.341-13.295-26.88c0-18.85,15.283-34.133,34.133-34.133
		c3.26,0.043,6.485,0.563,9.591,1.553l-4.847,16.367c-1.536-0.512-3.132-0.802-4.745-0.853c-9.429,0-17.067,7.637-17.067,17.067
		c0.017,5.257,2.483,10.206,6.673,13.389L286.362,487.68z"/>
	<path style="fill:#454545;" d="M256,290.133c-18.85,0-34.133-15.283-34.133-34.133c0-18.85,15.283-34.133,34.133-34.133
		S290.133,237.15,290.133,256C290.133,274.85,274.85,290.133,256,290.133z M256,238.933c-9.429,0-17.067,7.637-17.067,17.067
		c0,9.429,7.637,17.067,17.067,17.067s17.067-7.637,17.067-17.067C273.067,246.571,265.429,238.933,256,238.933z"/>
</g>
<path d="M449.041,362.846c0.589-11.725-10.334-31.497-29.986-54.246l-12.868,11.153c21.581,24.994,26.001,39.253,25.856,42.231
	L449.041,362.846z"/>
<path d="M147.157,145.289c-6.093-1.545-11.895-2.842-17.399-3.9l-3.234,16.759c5.205,1.007,10.692,2.236,16.452,3.678
	L147.157,145.289z"/>
<path d="M93.722,154.522c5.461,0.034,10.923,0.384,16.341,1.041l1.98-16.947c-12.288-1.835-24.798-1.596-37.009,0.708l4.011,16.589
	C83.866,154.88,88.789,154.419,93.722,154.522z"/>
<path d="M25.6,204.8c0,18.85,15.283,34.133,34.133,34.133c5.564-0.043,11.025-1.468,15.906-4.147
	c6.622,7.125,13.653,14.268,21.402,21.402C45.815,303.676,16.068,352.427,34.295,384c9.387,16.273,30.08,24.636,59.733,24.636
	c14.182-0.162,28.314-1.673,42.206-4.514c13.653-2.714,27.153-6.161,40.439-10.334C192.205,461.875,219.546,512,256,512
	c14.899-0.785,28.681-8.132,37.632-20.062c4.258,1.946,8.883,2.961,13.568,2.995c18.85,0,34.133-15.283,34.133-34.133
	c0.034-11.895-6.221-22.929-16.444-29.013c4.198-12.459,7.748-25.131,10.65-37.956c13.21,4.13,26.633,7.552,40.209,10.24
	c13.892,2.842,28.023,4.352,42.206,4.514c29.67,0,50.347-8.371,59.733-24.636c18.227-31.573-11.529-80.341-62.763-127.829
	c9.899-9.173,18.893-18.347,26.982-27.511c3.337,1.152,6.835,1.758,10.36,1.792c18.85,0,34.133-15.283,34.133-34.133
	c-0.026-8.209-3.063-16.128-8.533-22.255c6.963-18.159,6.955-33.63-0.188-46.012c-13.355-23.125-49.553-30.285-101.956-20.122
	c-13.653,2.714-27.153,6.161-40.439,10.334C319.795,50.125,292.454,0,256,0s-63.795,50.125-79.309,118.212
	c-13.286-4.173-26.786-7.62-40.439-10.334C83.866,97.707,47.65,104.858,34.295,128c-5.555,9.634-9.156,26.325,2.347,51.883
	C29.645,186.283,25.643,195.319,25.6,204.8z M42.667,204.8c0.051-6.161,3.413-11.81,8.798-14.797l0,0
	c2.509-1.468,5.359-2.244,8.269-2.27c9.429,0,17.067,7.637,17.067,17.067c-0.111,9.378-7.689,16.956-17.067,17.067
	C50.304,221.867,42.667,214.229,42.667,204.8z M133,387.413c-44.049,8.533-74.633,4.207-83.925-11.947
	c-11.648-20.181,10.863-62.029,60.646-108.023c17.365,14.899,35.558,28.8,54.494,41.634c1.741,22.793,4.745,45.466,9.011,67.917
	C160.026,381.21,146.594,384.691,133,387.413z M217.6,189.491c12.8-7.39,25.6-14.217,38.4-20.574
	c12.8,6.357,25.6,13.184,38.4,20.574c13.022,7.518,25.37,15.172,37.043,22.955c0.853,13.995,1.357,28.518,1.357,43.52
	c0,14.711-0.512,29.278-1.417,43.588c-11.861,7.859-24.192,15.539-36.983,22.921s-25.6,14.217-38.4,20.574
	c-12.8-6.357-25.6-13.184-38.4-20.574c-12.8-7.39-25.148-15.053-37.043-22.938c-0.87-13.969-1.357-28.493-1.357-43.537
	c0-15.044,0.486-29.559,1.357-43.52C192.247,204.706,204.595,197.043,217.6,189.491z M182.221,191.07
	c1.707-18.031,4.122-34.987,7.083-50.722c15.36,5.436,31.232,11.947,47.309,19.319c-9.182,4.796-18.372,9.745-27.546,15.044
	C199.893,180.011,191.036,185.421,182.221,191.07z M275.388,159.667c16.077-7.356,31.94-13.884,47.309-19.319
	c2.961,15.735,5.359,32.691,7.083,50.722c-8.815-5.649-17.775-11.093-26.846-16.358C293.862,169.446,284.57,164.463,275.388,159.667
	z M349.124,224.572c14.737,10.496,28.203,21.035,40.337,31.454c-12.407,10.615-25.89,21.12-40.337,31.386
	c0.444-10.351,0.742-20.796,0.742-31.411C349.867,245.53,349.602,235.034,349.124,224.572z M329.668,320.998
	c-1.707,17.596-4.002,34.603-6.98,50.654c-15.36-5.436-31.223-11.947-47.3-19.319c9.182-4.796,18.372-9.745,27.546-15.044
	C312.107,331.989,320.956,326.537,329.668,320.998z M236.655,352.333c-16.077,7.356-31.94,13.884-47.309,19.319
	c-2.961-15.736-5.359-32.7-7.083-50.739c8.764,5.581,17.664,11.093,26.846,16.375c9.182,5.282,18.321,10.249,27.503,15.044H236.655z
	 M162.918,287.437c-14.438-10.24-27.861-20.813-40.294-31.445c12.126-10.402,25.6-20.941,40.294-31.42
	c-0.521,10.462-0.785,20.958-0.785,31.428c0,10.47,0.265,20.975,0.742,31.437H162.918z M307.2,477.867
	c-9.361-0.154-16.913-7.706-17.067-17.067c0-9.429,7.637-17.067,17.067-17.067c1.63,0.034,3.234,0.307,4.787,0.802l0,0
	c7.27,2.057,12.288,8.704,12.279,16.265C324.267,470.229,316.629,477.867,307.2,477.867z M308.753,426.709c-0.213,0-0.418,0-0.64,0
	c-0.222,0-0.614-0.043-0.913-0.043c-0.777,0-1.502,0.179-2.27,0.23c-1.451,0.051-2.901,0.196-4.335,0.435
	c-0.444,0.085-0.853,0.247-1.289,0.35c-1.818,0.393-3.593,0.947-5.316,1.655c-0.128,0.051-0.247,0.128-0.375,0.188
	c-1.903,0.811-3.729,1.809-5.444,2.961c-0.111,0.068-0.196,0.154-0.299,0.23c-1.69,1.152-3.268,2.458-4.719,3.891
	c-0.29,0.29-0.512,0.631-0.794,0.93c-1.22,1.263-2.338,2.628-3.354,4.062c-0.495,0.725-0.853,1.545-1.28,2.304
	c-1.519,2.253-2.594,4.779-3.157,7.441c-0.247,0.853-0.597,1.63-0.777,2.492c-0.99,4.574-0.964,9.301,0.068,13.867
	c0.137,0.64,0.307,1.263,0.478,1.894c0.461,1.724,1.067,3.405,1.809,5.035c0.222,0.503,0.41,1.024,0.666,1.519
	c0.93,1.869,2.039,3.652,3.311,5.316c-5.743,7.731-14.524,12.638-24.124,13.466c-23.296,0-48.273-40.388-63.215-106.462
	c21.555-7.586,42.658-16.393,63.215-26.377c20.574,9.984,41.694,18.799,63.266,26.394
	C316.442,401.408,312.934,414.165,308.753,426.709z M462.925,375.467c-9.293,16.102-39.885,20.48-83.925,11.947
	c-13.474-2.679-26.786-6.093-39.876-10.24c4.233-22.502,7.168-45.227,8.789-68.062c18.927-12.791,37.103-26.65,54.443-41.515
	C452.087,313.481,474.564,355.294,462.925,375.467z M452.267,213.333c-2.944-0.026-5.828-0.828-8.363-2.321l0,0
	c-5.376-2.961-8.704-8.61-8.704-14.746c0-9.429,7.637-17.067,17.067-17.067c3.763,0.026,7.407,1.297,10.359,3.635l0,0
	c7.467,5.675,8.917,16.333,3.234,23.799C462.635,210.876,457.6,213.359,452.267,213.333z M378.999,124.629
	c13.03-2.662,26.283-4.096,39.578-4.267c22.63,0,38.178,5.513,44.373,16.213c3.934,8.713,4.096,18.662,0.452,27.494h-0.094
	c-1.109-0.384-2.261-0.614-3.413-0.853c-0.674-0.154-1.323-0.393-2.005-0.512c-18.594-3.106-36.181,9.446-39.287,28.041
	c-0.307,1.826-0.461,3.669-0.469,5.521c0.017,1.92,0.205,3.84,0.555,5.726c0.094,0.521,0.205,1.024,0.316,1.527
	c0.341,1.553,0.794,3.081,1.348,4.565c0.119,0.316,0.205,0.64,0.333,0.947c0.717,1.724,1.57,3.388,2.56,4.975
	c0.247,0.401,0.529,0.785,0.794,1.178c0.853,1.263,1.792,2.466,2.799,3.601c0.205,0.222,0.35,0.495,0.555,0.717
	c-7.561,8.397-16.026,16.853-25.19,25.284c-17.348-14.942-35.516-28.894-54.417-41.813c-1.732-22.81-4.745-45.5-9.011-67.968
	C351.983,130.807,365.406,127.343,378.999,124.629z M256,17.067c23.296,0,48.273,40.388,63.215,106.462
	c-21.555,7.586-42.658,16.393-63.215,26.377c-20.557-9.984-41.66-18.79-63.215-26.377C207.727,57.455,232.704,17.067,256,17.067z
	 M49.075,136.533c9.293-16.111,39.876-20.48,83.925-11.904c13.577,2.714,26.999,6.178,40.192,10.377
	c-4.258,22.485-7.253,45.184-8.977,68.002c-18.876,12.885-37.018,26.812-54.349,41.719c-7.68-7.091-15.044-14.208-21.632-21.274
	c0.973-1.493,1.826-3.063,2.56-4.693c0.154-0.324,0.247-0.674,0.384-1.007c0.683-1.63,1.229-3.311,1.647-5.026
	c0.137-0.546,0.265-1.092,0.375-1.647c0.418-2.065,0.64-4.173,0.666-6.281c0-18.85-15.283-34.133-34.133-34.133
	c-1.408,0-2.816,0.094-4.215,0.273c-0.435,0.06-0.853,0.179-1.297,0.247c-0.853,0.154-1.801,0.29-2.688,0.521
	C46.541,160.247,43.255,146.62,49.075,136.533z"/>
<path d="M363.955,163.157c17.664-5.205,35.917-8.107,54.323-8.636h1.621l0.247-17.067h-1.869c-19.9,0.589-39.637,3.686-58.761,9.216
	L363.955,163.157z"/>
<path d="M62.959,362.837c0.145,2.987,1.852,5.675,4.48,7.091c8.269,3.618,17.28,5.197,26.283,4.617v-17.067
	c-4.173,0.051-8.346-0.256-12.467-0.93c3.413-9.122,14.182-27.059,37.897-51.2l-12.177-11.947
	C79.104,321.766,62.234,348.373,62.959,362.837z"/>
<path d="M259.797,50.586l-7.595-15.283c-11.691,5.811-22.016,27.452-27.127,39.842l15.778,6.502
	C250.027,59.418,257.8,51.575,259.797,50.586z"/>
<path d="M215.799,410.453c5.239,19.703,13.628,38.434,24.841,55.467l13.653-10.24c-9.993-15.454-17.476-32.384-22.187-50.176
	L215.799,410.453z"/>
<path d="M256,290.133c18.85,0,34.133-15.283,34.133-34.133c0-18.85-15.283-34.133-34.133-34.133S221.867,237.15,221.867,256
	C221.867,274.85,237.15,290.133,256,290.133z M256,238.933c9.429,0,17.067,7.637,17.067,17.067c0,9.429-7.637,17.067-17.067,17.067
	s-17.067-7.637-17.067-17.067C238.933,246.571,246.571,238.933,256,238.933z"/>
<g>
</g>
<g>
</g>
<g>
</g>
<g>
</g>
<g>
</g>
<g>
</g>
<g>
</g>
<g>
</g>
<g>
</g>
<g>
</g>
<g>
</g>
<g>
</g>
<g>
</g>
<g>
</g>
<g>
</g>
</svg>
